<?xml version="1.0" standalone="no"?>
<!DOCTYPE svg PUBLIC "-//W3C//DTD SVG 20010904//EN"
 "http://www.w3.org/TR/2001/REC-SVG-20010904/DTD/svg10.dtd">
<svg version="1.0" xmlns="http://www.w3.org/2000/svg"
 width="215.000000pt" height="215.000000pt" viewBox="0 0 215.000000 215.000000"
 preserveAspectRatio="xMidYMid meet">
<metadata>
Created by potrace 1.14, written by Peter Selinger 2001-2017
</metadata>
<g transform="translate(0.000000,215.000000) scale(0.100000,-0.100000)"
fill="#000000" stroke="none">
<path d="M1210 1921 c0 -4 -15 -5 -34 -3 -18 2 -43 -1 -55 -7 -16 -9 -21 -9
-21 0 0 8 -4 9 -13 0 -10 -8 -17 -7 -25 1 -9 9 -12 9 -12 -1 0 -7 -4 -9 -10
-6 -5 3 -10 1 -10 -6 0 -7 -3 -9 -7 -6 -3 4 -12 2 -20 -4 -10 -9 -13 -8 -13 2
0 11 -2 11 -10 -1 -5 -8 -10 -11 -10 -7 0 5 -16 0 -36 -12 -35 -21 -63 -30
-34 -11 10 7 11 10 2 10 -7 0 -15 -6 -18 -13 -2 -7 -14 -14 -26 -14 -12 -1
-24 -6 -27 -11 -6 -8 -42 -25 -49 -22 -2 1 -12 -8 -21 -19 -10 -11 -21 -18
-25 -14 -3 3 -6 1 -6 -5 0 -7 -6 -12 -14 -12 -8 0 -25 -12 -38 -28 -12 -15
-36 -37 -52 -50 -16 -12 -25 -22 -22 -22 4 0 -10 -17 -33 -37 -22 -21 -39 -40
-38 -43 1 -3 -13 -26 -31 -52 -18 -27 -30 -48 -26 -48 4 0 0 -8 -9 -18 -10
-10 -14 -22 -10 -25 3 -4 1 -7 -5 -7 -7 0 -11 -3 -10 -7 4 -15 -24 -83 -32
-78 -4 3 -13 -2 -20 -11 -10 -11 -15 -12 -21 -3 -6 10 -11 10 -21 1 -8 -7 -19
-7 -28 -2 -9 5 -19 5 -27 -2 -9 -7 -13 -7 -13 1 0 7 -5 9 -13 4 -19 -12 -37
-12 -37 -1 0 7 -5 6 -14 -1 -10 -9 -16 -9 -21 -1 -5 8 -11 7 -22 -1 -9 -8 -17
-9 -21 -3 -9 12 -35 17 -28 5 4 -5 0 -15 -7 -22 -19 -18 -9 -69 14 -69 11 0
19 -5 19 -11 0 -6 9 -9 20 -6 11 3 20 0 20 -6 0 -6 3 -7 7 -4 3 4 12 2 20 -4
7 -6 13 -8 13 -5 0 4 10 1 22 -6 13 -7 26 -11 31 -10 4 1 7 -2 7 -8 0 -5 6 -7
14 -4 8 3 17 0 21 -5 3 -6 11 -9 16 -6 5 4 9 1 9 -4 0 -6 5 -11 11 -11 5 0 7
6 3 13 -6 9 -5 9 7 0 15 -12 18 -61 5 -81 -4 -7 -2 -12 5 -12 8 0 9 -4 1 -13
-9 -10 -7 -19 4 -35 12 -17 12 -22 2 -22 -9 0 -9 -3 2 -10 8 -5 10 -10 3 -10
-12 0 -6 -37 10 -57 5 -7 6 -13 2 -13 -4 0 -2 -7 5 -15 10 -12 10 -15 0 -15
-10 0 -10 -3 0 -15 7 -8 9 -15 4 -15 -4 0 1 -7 12 -15 13 -10 15 -14 5 -15
-11 0 -10 -4 3 -19 10 -11 15 -24 12 -30 -3 -5 -2 -11 4 -13 6 -2 12 -13 14
-25 3 -13 14 -32 25 -44 11 -12 18 -26 15 -31 -3 -4 0 -8 7 -8 7 0 10 -3 6 -6
-3 -3 9 -20 26 -36 18 -17 25 -27 17 -23 -8 4 4 -11 26 -33 23 -23 39 -43 36
-46 -3 -3 2 -6 12 -6 9 0 14 -4 11 -10 -3 -5 1 -10 9 -10 9 0 16 -4 16 -8 0
-4 18 -19 40 -32 22 -14 40 -28 40 -32 0 -5 7 -8 15 -8 8 0 15 -4 15 -10 0 -5
9 -10 20 -10 11 0 20 -5 20 -11 0 -5 5 -7 11 -4 6 4 16 0 22 -9 7 -9 22 -18
35 -19 12 0 22 -5 22 -9 0 -4 8 -8 18 -8 10 0 23 -5 30 -12 7 -7 12 -9 12 -6
0 3 23 0 52 -7 28 -8 55 -12 59 -9 4 2 10 -2 12 -8 4 -10 6 -10 6 0 1 7 6 10
12 6 15 -9 119 -12 119 -3 0 4 14 4 30 -1 20 -6 30 -5 30 2 0 6 6 6 15 -2 9
-7 15 -8 15 -2 0 13 60 21 60 8 0 -6 5 -3 11 7 5 9 15 17 20 17 6 0 8 -4 5 -9
-4 -5 11 -1 31 9 20 10 44 15 52 12 10 -4 12 -1 6 8 -5 9 -4 11 4 6 6 -4 18 0
27 8 9 9 20 14 25 11 5 -4 9 -1 9 5 0 6 5 8 10 5 6 -3 10 -1 10 4 0 6 6 11 13
11 7 0 23 9 34 19 12 11 24 17 27 14 3 -4 6 -1 6 5 0 7 5 12 11 12 7 0 22 11
35 25 13 14 28 25 33 25 6 0 14 6 18 13 4 7 19 21 33 30 13 9 20 17 15 17 -5
0 0 9 11 20 27 27 44 48 44 55 0 8 44 69 53 73 4 2 5 8 1 13 -3 5 0 9 6 9 6 0
8 5 5 10 -3 6 -1 10 5 10 6 0 9 4 5 9 -3 5 0 13 6 16 5 4 8 14 5 22 -3 8 -1
11 4 8 6 -3 10 3 10 14 0 12 4 21 9 21 5 0 9 11 10 25 3 47 4 55 11 55 7 0 8
3 13 67 1 23 6 45 10 49 3 4 2 15 -4 25 -6 13 -6 19 1 19 5 0 10 18 10 40 0
22 -5 40 -10 40 -7 0 -7 6 0 20 8 15 8 20 -2 20 -9 0 -9 3 0 12 7 7 8 17 2 28
-5 10 -11 32 -12 49 -1 17 -5 31 -8 31 -4 0 -7 6 -8 13 -8 58 -8 77 -1 77 5 0
6 7 3 15 -4 8 -1 15 6 15 7 0 10 8 7 20 -3 11 -1 20 5 20 6 0 8 7 4 15 -3 8
-1 15 5 15 6 0 9 7 5 15 -3 8 -1 15 5 15 6 0 9 6 6 14 -3 8 -1 16 4 18 5 2 11
13 12 26 0 12 5 22 9 22 4 0 8 18 8 39 0 22 4 42 9 45 5 3 6 20 3 38 -3 18 -5
47 -6 63 0 22 -5 31 -17 31 -10 0 -16 -3 -15 -6 4 -8 -73 -78 -79 -72 -3 3 -5
-2 -5 -11 0 -8 -9 -19 -21 -22 -11 -4 -18 -9 -16 -12 3 -2 -11 -20 -30 -38
-31 -29 -39 -32 -59 -23 -13 6 -21 15 -18 19 3 5 0 9 -6 9 -14 0 -40 25 -40
39 0 5 -8 12 -17 15 -10 3 -34 19 -53 36 -19 16 -41 30 -48 30 -7 0 -10 5 -7
10 3 6 -1 10 -9 10 -9 0 -16 4 -16 10 0 5 -6 7 -14 4 -7 -3 -16 2 -20 11 -3 9
-10 13 -16 10 -5 -3 -10 -1 -10 4 0 6 -3 10 -7 9 -13 -2 -63 14 -63 21 0 4
-12 8 -27 9 -15 1 -31 6 -36 11 -5 5 -16 7 -23 4 -8 -3 -14 1 -14 8 0 11 -3
11 -10 -1 -7 -12 -10 -12 -10 -1 0 8 -6 11 -16 7 -9 -4 -23 -1 -30 5 -11 9
-14 8 -14 -1 0 -10 -3 -10 -15 0 -9 7 -18 10 -21 7 -3 -3 -19 -1 -35 3 -16 5
-29 5 -29 1z"/>
</g>
</svg>
